<?xml version="1.0" encoding="UTF-8"?>
<!DOCTYPE svg PUBLIC "-//W3C//DTD SVG 1.1//EN" "http://www.w3.org/Graphics/SVG/1.1/DTD/svg11.dtd">
<svg version="1.1" xmlns="http://www.w3.org/2000/svg" xmlns:xlink="http://www.w3.org/1999/xlink" x="0px" y="0px" width="100" height="80" viewBox="0, 0, 400, 400">
  <g id="Shownot.es Logo">
    <path d="M98.211,66.741 C109.64,63.255 122.717,65.255 132.254,72.604 C144.98,81.952 151.762,97.839 151.518,113.428 C151.491,142.338 151.518,171.248 151.491,200.157 C151.653,216.233 144.088,232.552 130.498,241.495 C119.177,249.196 103.615,250.006 91.619,243.333 C76.326,235.146 67.275,217.503 67.68,200.4 C67.734,170.464 67.626,140.528 67.734,110.618 C67.788,91.733 79.92,72.685 98.211,66.741 z" fill="#444038"/>
    <path d="M209.419,109.889 C218.578,91.543 238.22,78.737 258.862,78.683 C296.472,78.548 334.081,78.656 371.718,78.656 C371.664,87.112 371.691,95.542 371.772,103.999 C361.532,103.999 351.292,104.026 341.079,104.08 C341.295,176.489 341.106,248.925 341.16,321.362 C332.812,321.389 324.436,321.389 316.087,321.335 C316.195,248.925 316.087,176.516 316.141,104.107 C306.334,103.999 296.499,103.999 286.691,104.08 C286.934,176.516 286.718,248.952 286.799,321.362 C278.289,321.389 269.805,321.389 261.294,321.362 C261.402,278.727 261.132,236.092 261.429,193.457 C242.408,193.268 223.441,183.892 212.985,167.789 C201.313,151.065 200.07,127.937 209.419,109.889 z" fill="#444038"/>
    <path d="M35.042,179.299 C40.554,179.299 46.039,179.272 51.55,179.245 C51.902,193.268 50.064,207.695 54.577,221.259 C61.196,242.927 80.271,261.03 103.129,263.731 C125.473,266.731 147.925,253.762 158.678,234.363 C168.837,217.881 168.27,197.915 167.756,179.272 C172.971,179.299 178.158,179.299 183.373,179.299 C182.644,196.861 185.616,215.342 178.023,231.85 C168.297,257.247 144.629,276.592 117.583,280.267 C117.637,293.019 117.61,305.772 117.583,318.498 C128.904,318.498 140.198,318.498 151.491,318.525 C151.491,323.982 151.491,329.44 151.518,334.871 C123.554,334.952 95.59,334.925 67.653,334.898 C67.68,329.44 67.707,323.955 67.734,318.498 C78.947,318.525 90.16,318.525 101.372,318.498 C101.345,305.772 101.291,293.019 101.426,280.294 C73.678,276.484 49.578,256.22 40.284,229.932 C33.745,213.829 35.312,196.24 35.042,179.299 z" fill="#444038"/>
  </g>

  <defs/>
</svg>
