<?xml version="1.0" encoding="UTF-8" standalone="no"?>
<svg
	 xmlns:dc="http://purl.org/dc/elements/1.1/"
	 xmlns:cc="http://creativecommons.org/ns#"
	 xmlns:rdf="http://www.w3.org/1999/02/22-rdf-syntax-ns#"
	 xmlns:svg="http://www.w3.org/2000/svg"
	 xmlns="http://www.w3.org/2000/svg"
	 version="1.1"
	 width="500"
	 height="104.05094"
	 viewBox="0 0 500 104.05094"
	 id="svg2">
	<defs
		 id="defs4" />
	<g
		 transform="translate(-79.000001,-173.33671)"
		 id="layer1">
		<g
			 transform="translate(13.845472,-299.8279)"
			 id="layer1-9">
			<g
				 transform="matrix(0.56733189,0,0,0.56733189,-53.187876,408.02413)"
				 id="g3008">
				<path
					 d="m 286.677,115.874 c -0.088,-0.663 -0.683,-1.055 -1.062,-1.055 h -17.543 c -0.4,0 -0.991,0.318 -1.03,0.982 -0.51,5.987 -3.021,37.684 0.086,48.526 0.325,0.582 9.713,16.236 9.713,16.236 0,0 8.899,-14.868 9.747,-16.236 2.989,-10.797 0.595,-42.285 0.089,-48.453 z m 9.387,77.791 c -0.605,-0.28 -17.399,-7.429 -17.399,-7.429 0,0 1.537,17.26 1.654,18.865 3.927,10.493 24.367,34.563 28.401,39.256 0.462,0.483 1.172,0.453 1.479,0.229 2.696,-1.958 11.535,-8.377 14.194,-10.308 0.324,-0.236 0.616,-0.84 0.257,-1.4 -3.104,-5.145 -19.699,-32.266 -28.586,-39.213 z m 48.998,-22.883 c -1.029,-3.168 -4.403,-13.559 -5.417,-16.685 -0.124,-0.38 -0.609,-0.845 -1.252,-0.676 -5.852,1.363 -36.775,8.764 -46.128,15.07 -0.454,0.488 -12.442,14.252 -12.442,14.252 0,0 16.89,3.872 18.452,4.256 11.194,-0.492 40.401,-12.494 46.112,-14.88 0.602,-0.289 0.793,-0.976 0.675,-1.337 z M 229.005,232.77 c -0.317,0.588 -0.067,1.255 0.24,1.478 2.695,1.959 11.531,8.382 14.19,10.314 0.324,0.235 0.988,0.327 1.41,-0.188 3.934,-4.543 24.601,-28.707 28.461,-39.305 0.079,-0.662 1.688,-18.844 1.688,-18.844 0,0 -15.94,6.796 -17.43,7.403 -8.766,6.977 -25.341,33.854 -28.559,39.142 z m 44.868,-50.038 c 0,0 -11.388,-13.061 -12.427,-14.29 -9.345,-6.181 -40.028,-13.64 -46.051,-15.066 -0.658,-0.12 -1.215,0.323 -1.333,0.684 -1.031,3.17 -4.408,13.558 -5.424,16.683 -0.123,0.38 -0.004,1.041 0.615,1.283 5.536,2.337 34.904,14.525 46.176,14.921 0.654,-0.127 18.444,-4.215 18.444,-4.215 z"
					 class="logo"
					 style="fill:#40a662;fill-opacity:1;fill-rule:evenodd" />
				<path
					 d="m 379.2,243.004 c -15.148,-4.398 -18.08,-6.679 -18.08,-11.728 0,-4.724 4.235,-7.819 12.542,-7.819 6.841,0 13.845,2.443 20.85,7.167 l 8.796,-13.52 c -8.145,-6.516 -18.733,-10.424 -31.275,-10.424 -20.85,0 -34.207,11.076 -34.207,25.735 0,13.032 8.145,21.664 25.574,26.551 15.963,4.398 19.058,6.515 19.058,13.194 0,5.701 -5.539,9.285 -14.334,9.285 -8.47,0 -16.452,-3.42 -22.804,-8.633 l -11.565,12.868 c 8.144,7.493 20.198,12.542 35.183,12.542 20.524,0 37.301,-10.1 37.301,-28.017 0,-15.31 -9.774,-22.478 -27.039,-27.201 z m 83.14,-36.323 c -10.425,0 -18.244,4.397 -25.085,12.379 v -46.586 l -23.129,2.443 v 120.7 h 23.129 v -59.78 c 4.724,-7.494 10.1,-11.891 16.615,-11.891 5.701,0 9.447,2.769 9.447,12.705 v 58.966 h 23.129 v -62.875 c 10e-4,-16.289 -9.12,-26.061 -24.106,-26.061 z m 73.828,0 c -26.062,0 -41.537,18.243 -41.537,45.771 0,28.668 15.638,45.771 41.374,45.771 25.899,0 41.374,-18.407 41.374,-45.771 -10e-4,-28.669 -15.475,-45.771 -41.211,-45.771 z m -0.163,74.276 c -11.402,0 -17.266,-8.632 -17.266,-28.505 0,-19.709 5.864,-28.505 17.429,-28.505 11.239,0 17.103,8.633 17.103,28.505 0,19.709 -5.864,28.505 -17.266,28.505 z m 125.52,-2.443 -12.868,-69.228 h -23.13 l -14.333,69.228 -10.588,-69.228 h -23.292 l 18.894,86.331 h 27.854 l 12.379,-65.644 12.379,65.644 H 677 l 18.406,-86.331 h -22.153 l -11.728,69.228 z m 88.873,-71.833 c -11.077,0 -19.385,4.887 -26.388,13.519 l -1.792,-10.913 h -20.035 v 86.331 h 23.129 V 236 c 4.725,-7.656 9.937,-12.053 16.615,-12.053 5.864,0 9.448,2.769 9.448,12.705 v 58.966 h 23.13 v -62.875 c 10e-4,-16.29 -8.959,-26.062 -24.107,-26.062 z m 74.828,0 c -26.062,0 -41.536,18.243 -41.536,45.771 0,28.668 15.638,45.771 41.374,45.771 25.898,0 41.373,-18.407 41.373,-45.771 -10e-4,-28.669 -15.476,-45.771 -41.211,-45.771 z m -0.163,74.276 c -11.402,0 -17.266,-8.632 -17.266,-28.505 0,-19.709 5.864,-28.505 17.429,-28.505 11.239,0 17.103,8.633 17.103,28.505 0,19.709 -5.864,28.505 -17.266,28.505 z m 96.105,-55.382 2.279,-16.289 h -19.872 v -21.664 l -23.13,2.769 v 18.895 h -12.868 v 16.289 h 12.868 v 43.002 c 0,17.842 7.865,27.958 23.325,29.449 V 271.54 l -0.195,-45.965 h 17.593 z m 1.143,44.794 c -7.656,0 -13.846,6.352 -13.846,13.846 0,7.655 6.19,14.008 13.846,14.008 7.818,0 14.008,-6.353 14.008,-14.008 0,-7.494 -6.191,-13.846 -14.008,-13.846 z m 53.853,-63.688 c -25.248,0 -39.256,20.197 -39.256,46.259 0,27.04 14.498,45.283 42.188,45.283 13.52,0 24.27,-4.887 32.741,-11.729 l -9.61,-13.03 c -7.493,5.212 -13.683,7.493 -21.013,7.493 -11.077,0 -18.895,-4.886 -20.523,-21.501 h 53.915 c 0.164,-2.443 0.489,-6.027 0.489,-8.958 0,-27.529 -14.499,-43.817 -38.931,-43.817 z m 15.962,38.277 h -31.438 c 1.303,-16.289 6.841,-22.478 15.963,-22.478 11.076,0 15.475,8.471 15.475,21.501 v 0.977 z m 70.747,-1.954 c -15.148,-4.398 -18.08,-6.679 -18.08,-11.728 0,-4.724 4.235,-7.819 12.542,-7.819 6.842,0 13.846,2.443 20.85,7.167 l 8.796,-13.52 c -8.144,-6.516 -18.732,-10.424 -31.274,-10.424 -20.85,0 -34.207,11.076 -34.207,25.735 0,13.032 8.144,21.664 25.574,26.551 15.963,4.398 19.058,6.515 19.058,13.194 0,5.701 -5.538,9.285 -14.335,9.285 -8.469,0 -16.451,-3.42 -22.804,-8.633 l -11.565,12.868 c 8.145,7.493 20.199,12.542 35.184,12.542 20.524,0 37.301,-10.1 37.301,-28.017 -10e-4,-15.31 -9.774,-22.478 -27.04,-27.201 z"
					 class="logo"
					 style="fill:#40a662;fill-opacity:1;fill-rule:evenodd" />
			</g>
		</g>
	</g>
</svg>