<?xml version="1.0" encoding="UTF-8" standalone="no"?>
<svg
	 xmlns:dc="http://purl.org/dc/elements/1.1/"
	 xmlns:cc="http://creativecommons.org/ns#"
	 xmlns:rdf="http://www.w3.org/1999/02/22-rdf-syntax-ns#"
	 xmlns:svg="http://www.w3.org/2000/svg"
	 xmlns="http://www.w3.org/2000/svg"
	 version="1.1"
	 width="77.441063"
	 height="73.714233"
	 viewBox="0 0 77.441063 73.714233"
	 id="svg2">
	<defs
		 id="defs4" />
	<g
		 transform="translate(-82.000002,-64.33671)"
		 id="layer1">
		<g
			 transform="translate(3.0000002,-109)"
			 id="layer1-4">
			<g
				 transform="translate(13.845472,-299.8279)"
				 id="layer1-9">
				<g
					 transform="matrix(0.56733189,0,0,0.56733189,-53.187876,408.02413)"
					 id="g3008">
					<path
						 d="m 286.677,115.874 c -0.088,-0.663 -0.683,-1.055 -1.062,-1.055 h -17.543 c -0.4,0 -0.991,0.318 -1.03,0.982 -0.51,5.987 -3.021,37.684 0.086,48.526 0.325,0.582 9.713,16.236 9.713,16.236 0,0 8.899,-14.868 9.747,-16.236 2.989,-10.797 0.595,-42.285 0.089,-48.453 z m 9.387,77.791 c -0.605,-0.28 -17.399,-7.429 -17.399,-7.429 0,0 1.537,17.26 1.654,18.865 3.927,10.493 24.367,34.563 28.401,39.256 0.462,0.483 1.172,0.453 1.479,0.229 2.696,-1.958 11.535,-8.377 14.194,-10.308 0.324,-0.236 0.616,-0.84 0.257,-1.4 -3.104,-5.145 -19.699,-32.266 -28.586,-39.213 z m 48.998,-22.883 c -1.029,-3.168 -4.403,-13.559 -5.417,-16.685 -0.124,-0.38 -0.609,-0.845 -1.252,-0.676 -5.852,1.363 -36.775,8.764 -46.128,15.07 -0.454,0.488 -12.442,14.252 -12.442,14.252 0,0 16.89,3.872 18.452,4.256 11.194,-0.492 40.401,-12.494 46.112,-14.88 0.602,-0.289 0.793,-0.976 0.675,-1.337 z M 229.005,232.77 c -0.317,0.588 -0.067,1.255 0.24,1.478 2.695,1.959 11.531,8.382 14.19,10.314 0.324,0.235 0.988,0.327 1.41,-0.188 3.934,-4.543 24.601,-28.707 28.461,-39.305 0.079,-0.662 1.688,-18.844 1.688,-18.844 0,0 -15.94,6.796 -17.43,7.403 -8.766,6.977 -25.341,33.854 -28.559,39.142 z m 44.868,-50.038 c 0,0 -11.388,-13.061 -12.427,-14.29 -9.345,-6.181 -40.028,-13.64 -46.051,-15.066 -0.658,-0.12 -1.215,0.323 -1.333,0.684 -1.031,3.17 -4.408,13.558 -5.424,16.683 -0.123,0.38 -0.004,1.041 0.615,1.283 5.536,2.337 34.904,14.525 46.176,14.921 0.654,-0.127 18.444,-4.215 18.444,-4.215 z"
						 class="logo"
						 style="fill:#40a662;fill-opacity:1;fill-rule:evenodd" />
				</g>
			</g>
		</g>
	</g>
</svg>
